<svg viewBox="0 0 1100 880" xmlns="http://www.w3.org/2000/svg" font-family="Arial, Helvetica, sans-serif">
  <title>WealthSeva AI — Prototype Architecture (EC2, July 9 2026)</title>
  <desc>Simplified EC2-based prototype. CloudFront+WAF in front, Amplify for frontend, EC2 Docker for backend. Supabase and Pinecone kept as-is. Achievable in 3 days.</desc>

  <defs>
    <marker id="arr" markerWidth="8" markerHeight="8" refX="5" refY="4" orient="auto">
      <path d="M0,0 L0,8 L8,4 z" fill="#4B5563"/>
    </marker>
    <marker id="arr-gray" markerWidth="8" markerHeight="8" refX="5" refY="4" orient="auto">
      <path d="M0,0 L0,8 L8,4 z" fill="#374151"/>
    </marker>
  </defs>

  <!-- Background -->
  <rect width="1100" height="880" fill="#0D1117" rx="10"/>

  <!-- ── HEADER ───────────────────────────────────────────────── -->
  <rect x="0" y="0" width="1100" height="72" fill="#161B22" rx="10"/>
  <rect x="0" y="52" width="1100" height="20" fill="#161B22"/>

  <rect x="18" y="16" width="116" height="24" fill="#FF9900" rx="12"/>
  <text x="76" y="32" text-anchor="middle" font-size="11" font-weight="bold" fill="#0D1117">PROTOTYPE</text>

  <rect x="146" y="16" width="148" height="24" fill="#1F2937" rx="12" stroke="#374151" stroke-width="1"/>
  <text x="220" y="32" text-anchor="middle" font-size="10" font-weight="bold" fill="#E5E7EB">📅 Due: Jul 9, 2026</text>

  <text x="550" y="30" text-anchor="middle" font-size="19" font-weight="bold" fill="#F9FAFB">WealthSeva AI — EC2 Prototype</text>
  <text x="550" y="50" text-anchor="middle" font-size="11" fill="#9CA3AF">Simplified deployment · ap-south-1 (Mumbai) · ~3 days to ship</text>

  <rect x="936" y="16" width="148" height="24" fill="#059669" rx="12"/>
  <text x="1010" y="32" text-anchor="middle" font-size="10" font-weight="bold" fill="#FFFFFF">✓ 3 days to ship</text>

  <!-- ── LEGEND ─────────────────────────────────────────────── -->
  <rect x="18" y="82" width="1064" height="22" fill="#161B22" rx="4"/>
  <rect x="60"  y="88" width="9" height="9" fill="#3B82F6" rx="2"/>
  <text x="74"  y="97" font-size="9" fill="#9CA3AF">New (add now)</text>
  <rect x="190" y="88" width="9" height="9" fill="#10B981" rx="2"/>
  <text x="204" y="97" font-size="9" fill="#9CA3AF">Existing — keep</text>
  <rect x="330" y="88" width="9" height="9" fill="#D97706" rx="2"/>
  <text x="344" y="97" font-size="9" fill="#9CA3AF">Improve (small change)</text>
  <rect x="490" y="88" width="9" height="9" fill="#1F2937" rx="2" stroke="#4B5563" stroke-width="1" stroke-dasharray="2,1"/>
  <text x="504" y="97" font-size="9" fill="#6B7280">Keep for now / migrate Phase 2</text>
  <rect x="700" y="88" width="9" height="9" fill="#111827" rx="2" stroke="#374151" stroke-width="1" stroke-dasharray="2,1"/>
  <text x="714" y="97" font-size="9" fill="#4B5563">Deferred → Phase 2</text>

  <!-- ════════════════════════════════════════════════════════
       ROW 1: USERS
  ════════════════════════════════════════════════════════ -->
  <text x="28" y="124" font-size="8" font-weight="bold" fill="#4B5563" letter-spacing="1.5">USERS</text>
  <rect x="18" y="110" width="1064" height="60" fill="#1E293B" rx="7" stroke="#334155" stroke-width="1"/>

  <rect x="80"  y="120" width="280" height="42" fill="#0F172A" rx="6" stroke="#334155" stroke-width="1"/>
  <text x="130" y="136" font-size="11" font-weight="bold" fill="#E2E8F0">📱💻 Browser</text>
  <text x="130" y="151" font-size="9"  fill="#9CA3AF">Mobile + Desktop · 5 languages · Next.js 14</text>

  <rect x="390" y="120" width="260" height="42" fill="#1C1408" rx="6" stroke="#78350F" stroke-width="1"/>
  <rect x="390" y="120" width="80" height="14" fill="#78350F" rx="3"/>
  <text x="430" y="130" text-anchor="middle" font-size="7.5" font-weight="bold" fill="#FCD34D">KEEP (demo)</text>
  <text x="450" y="145" font-size="10.5" font-weight="bold" fill="#FCD34D">🔊 ElevenLabs</text>
  <text x="450" y="158" font-size="9"   fill="#FCA5A5">US-hosted · ⚠ documented gap</text>

  <!-- arrow -->
  <line x1="550" y1="170" x2="550" y2="186" stroke="#374151" stroke-width="1.5" marker-end="url(#arr)"/>
  <text x="558" y="181" font-size="8.5" fill="#4B5563">HTTPS</text>

  <!-- ════════════════════════════════════════════════════════
       ROW 2: EDGE
  ════════════════════════════════════════════════════════ -->
  <rect x="18" y="188" width="1064" height="82" fill="#0C1A2E" rx="7" stroke="#1E3A5F" stroke-width="1.5"/>
  <text x="30" y="204" font-size="8" font-weight="bold" fill="#3B82F6" letter-spacing="1.5">EDGE &amp; SECURITY  —  Day 2</text>

  <!-- CloudFront -->
  <rect x="50"  y="208" width="280" height="54" fill="#0D2137" rx="5" stroke="#1D4ED8" stroke-width="1"/>
  <rect x="50"  y="208" width="36" height="14" fill="#1E1B4B" rx="3"/>
  <text x="68"  y="218" text-anchor="middle" font-size="7" font-weight="bold" fill="#A78BFA">NEW</text>
  <text x="100" y="230" font-size="10.5" font-weight="bold" fill="#60A5FA">🌐 Amazon CloudFront</text>
  <text x="100" y="244" font-size="9"   fill="#CBD5E1">CDN · Origin Shield ap-south-1</text>
  <text x="100" y="256" font-size="9"   fill="#CBD5E1">Routes to Amplify + EC2 origins</text>

  <!-- WAF -->
  <rect x="360" y="208" width="280" height="54" fill="#0D2137" rx="5" stroke="#1D4ED8" stroke-width="1"/>
  <rect x="360" y="208" width="36" height="14" fill="#1E1B4B" rx="3"/>
  <text x="378" y="218" text-anchor="middle" font-size="7" font-weight="bold" fill="#A78BFA">NEW</text>
  <text x="410" y="230" font-size="10.5" font-weight="bold" fill="#60A5FA">🛡️ AWS WAF</text>
  <text x="410" y="244" font-size="9"   fill="#CBD5E1">OWASP Top 10 managed rules</text>
  <text x="410" y="256" font-size="9"   fill="#CBD5E1">Rate limit: 30 req/min/IP</text>

  <!-- ACM -->
  <rect x="670" y="208" width="280" height="54" fill="#0D2137" rx="5" stroke="#1D4ED8" stroke-width="1"/>
  <rect x="670" y="208" width="36" height="14" fill="#1E1B4B" rx="3"/>
  <text x="688" y="218" text-anchor="middle" font-size="7" font-weight="bold" fill="#A78BFA">NEW</text>
  <text x="720" y="230" font-size="10.5" font-weight="bold" fill="#60A5FA">🔐 ACM (TLS cert)</text>
  <text x="720" y="244" font-size="9"   fill="#CBD5E1">Free managed cert on CloudFront</text>
  <text x="720" y="256" font-size="9"   fill="#CBD5E1">Removes self-signed certs from Dockerfile</text>

  <!-- arrow -->
  <line x1="550" y1="270" x2="550" y2="286" stroke="#374151" stroke-width="1.5" marker-end="url(#arr)"/>

  <!-- ════════════════════════════════════════════════════════
       ROW 3: COMPUTE — Amplify + EC2 side by side
  ════════════════════════════════════════════════════════ -->
  <rect x="18" y="288" width="1064" height="176" fill="#111827" rx="7" stroke="#21262D" stroke-width="1"/>
  <text x="30" y="305" font-size="8" font-weight="bold" fill="#4B5563" letter-spacing="1.5">COMPUTE  —  ap-south-1</text>

  <!-- ── Amplify (left) ── -->
  <rect x="38"  y="310" width="468" height="144" fill="#0D1F30" rx="6" stroke="#1D4ED8" stroke-width="1"/>
  <rect x="38"  y="310" width="120" height="15" fill="#7C2D12" rx="3"/>
  <text x="98"  y="321" text-anchor="middle" font-size="7.5" font-weight="bold" fill="#FB923C">REPLACE VERCEL</text>
  <text x="88"  y="340" font-size="11.5" font-weight="bold" fill="#93C5FD">🚀 AWS Amplify Hosting</text>
  <text x="88"  y="356" font-size="10"  font-weight="bold" fill="#60A5FA">Next.js 14 Frontend</text>
  <text x="88"  y="373" font-size="9"   fill="#CBD5E1">✓ Connect GitHub → auto-deploy on push</text>
  <text x="88"  y="387" font-size="9"   fill="#CBD5E1">✓ SSR · App Router · next-intl i18n</text>
  <text x="88"  y="401" font-size="9"   fill="#CBD5E1">✓ Env vars via Amplify console</text>
  <text x="88"  y="415" font-size="9"   fill="#4ADE80">⏱ ~1 hour · zero code changes</text>
  <text x="88"  y="430" font-size="8.5" fill="#94A3B8">Served through CloudFront (Indian origin)</text>
  <text x="88"  y="444" font-size="8"   fill="#374151">Day 3</text>

  <!-- ── EC2 (right) ── -->
  <rect x="534" y="310" width="528" height="144" fill="#0D2010" rx="6" stroke="#15803D" stroke-width="1.5"/>
  <rect x="534" y="310" width="110" height="15" fill="#D97706" rx="3"/>
  <text x="589" y="321" text-anchor="middle" font-size="7.5" font-weight="bold" fill="#0D1117">IMPROVE EXISTING</text>
  <text x="584" y="340" font-size="11.5" font-weight="bold" fill="#86EFAC">🖥️ EC2 — t3.medium (ap-south-1)</text>
  <text x="584" y="356" font-size="10"  font-weight="bold" fill="#4ADE80">Docker — FastAPI Backend</text>
  <text x="584" y="373" font-size="9"   fill="#CBD5E1">Same backend/Dockerfile — no code change</text>
  <text x="584" y="387" font-size="9"   fill="#CBD5E1">Deploy: docker pull ECR → docker run  (not rsync)</text>
  <text x="584" y="401" font-size="9"   fill="#CBD5E1">EC2 IAM Role → Bedrock + S3 + Secrets Manager</text>
  <text x="584" y="415" font-size="9"   fill="#CBD5E1">Security Group: port 8000 from CloudFront only</text>
  <text x="584" y="429" font-size="9"   fill="#4ADE80">⏱ ~0.5 day · keeps existing setup</text>
  <text x="584" y="444" font-size="8"   fill="#374151">Day 1 — update deploy.yml rsync → docker pull+run</text>

  <!-- ── what changes on EC2 callout ── -->
  <rect x="534" y="432" width="528" height="22" fill="#111" rx="0"/><!-- just spacing -->

  <!-- arrow -->
  <line x1="550" y1="464" x2="550" y2="480" stroke="#374151" stroke-width="1.5" marker-end="url(#arr)"/>

  <!-- ════════════════════════════════════════════════════════
       ROW 4: AI / BEDROCK
  ════════════════════════════════════════════════════════ -->
  <rect x="18" y="482" width="1064" height="90" fill="#150E2A" rx="7" stroke="#3730A3" stroke-width="1.5"/>
  <text x="30" y="498" font-size="8" font-weight="bold" fill="#A78BFA" letter-spacing="1.5">AI LAYER — AMAZON BEDROCK (ap-south-1) — ZERO CHANGES</text>

  <!-- Claude -->
  <rect x="38"  y="504" width="310" height="60" fill="#1A1035" rx="5" stroke="#5B21B6" stroke-width="1"/>
  <rect x="38"  y="504" width="58" height="13" fill="#14532D" rx="3"/>
  <text x="67"  y="514" text-anchor="middle" font-size="7" font-weight="bold" fill="#4ADE80">EXISTS ✓</text>
  <text x="78"  y="529" font-size="10.5" font-weight="bold" fill="#C4B5FD">🤖 Claude Sonnet</text>
  <text x="78"  y="544" font-size="9"   fill="#A78BFA">claude-sonnet-4-6 via Bedrock</text>
  <text x="78"  y="558" font-size="9"   fill="#9CA3AF">claude_service.py · 5 language prompts</text>

  <!-- Titan -->
  <rect x="374" y="504" width="310" height="60" fill="#1A1035" rx="5" stroke="#5B21B6" stroke-width="1"/>
  <rect x="374" y="504" width="58" height="13" fill="#14532D" rx="3"/>
  <text x="403" y="514" text-anchor="middle" font-size="7" font-weight="bold" fill="#4ADE80">EXISTS ✓</text>
  <text x="414" y="529" font-size="10.5" font-weight="bold" fill="#C4B5FD">🔢 Titan Embeddings v2</text>
  <text x="414" y="544" font-size="9"   fill="#A78BFA">rag_service.py · BEDROCK_REGION=ap-south-1</text>
  <text x="414" y="558" font-size="9"   fill="#9CA3AF">Vectors for RAG retrieval</text>

  <!-- S3 -->
  <rect x="710" y="504" width="354" height="60" fill="#1A1035" rx="5" stroke="#5B21B6" stroke-width="1"/>
  <rect x="710" y="504" width="58" height="13" fill="#14532D" rx="3"/>
  <text x="739" y="514" text-anchor="middle" font-size="7" font-weight="bold" fill="#4ADE80">EXISTS ✓</text>
  <text x="749" y="529" font-size="10.5" font-weight="bold" fill="#C4B5FD">🪣 Amazon S3 (ap-south-1)</text>
  <text x="749" y="544" font-size="9"   fill="#A78BFA">wealthseva-ai-assets · documents + assets</text>
  <text x="749" y="558" font-size="9"   fill="#9CA3AF">Add SSE-S3 encrypt · block public access</text>

  <!-- arrow -->
  <line x1="550" y1="572" x2="550" y2="588" stroke="#374151" stroke-width="1.5" marker-end="url(#arr)"/>

  <!-- ════════════════════════════════════════════════════════
       ROW 5: DATA + SECRETS
  ════════════════════════════════════════════════════════ -->
  <rect x="18" y="590" width="1064" height="108" fill="#111827" rx="7" stroke="#374151" stroke-width="1"/>
  <text x="30" y="606" font-size="8" font-weight="bold" fill="#4B5563" letter-spacing="1.5">DATA &amp; SECRETS</text>

  <!-- Supabase keep -->
  <rect x="38"  y="612" width="294" height="78" fill="#0F172A" rx="5" stroke="#334155" stroke-width="1" stroke-dasharray="4,2"/>
  <rect x="38"  y="612" width="116" height="13" fill="#1F2937" rx="3" stroke="#4B5563" stroke-width="1"/>
  <text x="96"  y="622" text-anchor="middle" font-size="7" font-weight="bold" fill="#9CA3AF">KEEP FOR PROTOTYPE</text>
  <text x="78"  y="638" font-size="10.5" font-weight="bold" fill="#6B7280">🗄️ Supabase (PostgreSQL)</text>
  <text x="78"  y="653" font-size="9"   fill="#6B7280">User data · goals · risk profiles</text>
  <text x="78"  y="667" font-size="8.5" fill="#F59E0B">⚠ Phase 2: → Aurora Serverless v2</text>
  <text x="78"  y="681" font-size="8"   fill="#4B5563">Data residency gap — acknowledged</text>

  <!-- Pinecone keep -->
  <rect x="352" y="612" width="294" height="78" fill="#0F172A" rx="5" stroke="#334155" stroke-width="1" stroke-dasharray="4,2"/>
  <rect x="352" y="612" width="116" height="13" fill="#1F2937" rx="3" stroke="#4B5563" stroke-width="1"/>
  <text x="410" y="622" text-anchor="middle" font-size="7" font-weight="bold" fill="#9CA3AF">KEEP FOR PROTOTYPE</text>
  <text x="392" y="638" font-size="10.5" font-weight="bold" fill="#6B7280">🔍 Pinecone (Vector DB)</text>
  <text x="392" y="653" font-size="9"   fill="#6B7280">RAG index · 5 language namespaces</text>
  <text x="392" y="667" font-size="8.5" fill="#F59E0B">⚠ Phase 2: → OpenSearch Serverless</text>
  <text x="392" y="681" font-size="8"   fill="#4B5563">Fallback: mock_index.json already in repo</text>

  <!-- Secrets Manager (NEW) -->
  <rect x="666" y="612" width="398" height="78" fill="#1A1408" rx="5" stroke="#B45309" stroke-width="1"/>
  <rect x="666" y="612" width="36" height="13" fill="#1E1B4B" rx="3"/>
  <text x="684" y="622" text-anchor="middle" font-size="7" font-weight="bold" fill="#A78BFA">NEW</text>
  <text x="706" y="638" font-size="10.5" font-weight="bold" fill="#FCD34D">🔑 AWS Secrets Manager</text>
  <text x="706" y="653" font-size="9"   fill="#FDE68A">All API keys — ElevenLabs · IDBI Sandbox · Pinecone</text>
  <text x="706" y="667" font-size="9"   fill="#CBD5E1">EC2 IAM Role fetches at startup — removes .env from repo</text>
  <text x="706" y="681" font-size="8.5" fill="#4ADE80">⏱ ~2 hrs · Day 1</text>

  <!-- ════════════════════════════════════════════════════════
       ROW 6: 3-DAY SPRINT PLAN
  ════════════════════════════════════════════════════════ -->
  <rect x="18" y="710" width="1064" height="78" fill="#161B22" rx="7" stroke="#21262D" stroke-width="1"/>
  <text x="30" y="726" font-size="8" font-weight="bold" fill="#4B5563" letter-spacing="1.5">3-DAY SPRINT  (Jul 3 → Jul 5 done · Jul 6–8 demo polish)</text>

  <!-- Day 1 -->
  <rect x="38"  y="732" width="306" height="48" fill="#0D2137" rx="5" stroke="#1D4ED8" stroke-width="1"/>
  <text x="191" y="748" text-anchor="middle" font-size="9.5" font-weight="bold" fill="#60A5FA">Day 1 (Jul 3) — Backend</text>
  <text x="191" y="762" text-anchor="middle" font-size="8.5" fill="#CBD5E1">ECR repo · Secrets Manager setup</text>
  <text x="191" y="774" text-anchor="middle" font-size="8.5" fill="#CBD5E1">Update deploy.yml: rsync → docker pull+run</text>

  <!-- Day 2 -->
  <rect x="364" y="732" width="306" height="48" fill="#0D2137" rx="5" stroke="#1D4ED8" stroke-width="1"/>
  <text x="517" y="748" text-anchor="middle" font-size="9.5" font-weight="bold" fill="#60A5FA">Day 2 (Jul 4) — Edge</text>
  <text x="517" y="762" text-anchor="middle" font-size="8.5" fill="#CBD5E1">CloudFront + WAF + ACM cert</text>
  <text x="517" y="774" text-anchor="middle" font-size="8.5" fill="#CBD5E1">Point EC2 origin · Security Group: CF only</text>

  <!-- Day 3 -->
  <rect x="690" y="732" width="374" height="48" fill="#0D2137" rx="5" stroke="#1D4ED8" stroke-width="1"/>
  <text x="877" y="748" text-anchor="middle" font-size="9.5" font-weight="bold" fill="#60A5FA">Day 3 (Jul 5) — Frontend + Test</text>
  <text x="877" y="762" text-anchor="middle" font-size="8.5" fill="#CBD5E1">Amplify → GitHub connect · update CORS + NEXT_PUBLIC_BACKEND_URL</text>
  <text x="877" y="774" text-anchor="middle" font-size="8.5" fill="#CBD5E1">End-to-end smoke test all 5 languages</text>

  <!-- ════════════════════════════════════════════════════════
       ROW 7: DEFERRED
  ════════════════════════════════════════════════════════ -->
  <rect x="18" y="798" width="1064" height="66" fill="#0B1A10" rx="7" stroke="#1A3A1A" stroke-width="1"/>
  <text x="30" y="814" font-size="8" font-weight="bold" fill="#4ADE80" letter-spacing="1.5">PHASE 2 DEFERRED — Jul 9 → Jul 31  (data residency + observability)</text>

  <rect x="38"  y="820" width="162" height="36" fill="#0F1F0F" rx="4" stroke="#166534" stroke-width="1" stroke-dasharray="3,2"/>
  <text x="119" y="835" text-anchor="middle" font-size="9"   fill="#6B7280">ECS Fargate + ALB</text>
  <text x="119" y="848" text-anchor="middle" font-size="8"   fill="#4B5563">Replace EC2</text>

  <rect x="216" y="820" width="162" height="36" fill="#0F1F0F" rx="4" stroke="#166534" stroke-width="1" stroke-dasharray="3,2"/>
  <text x="297" y="835" text-anchor="middle" font-size="9"   fill="#6B7280">Aurora Serverless v2</text>
  <text x="297" y="848" text-anchor="middle" font-size="8"   fill="#4B5563">Replace Supabase</text>

  <rect x="394" y="820" width="162" height="36" fill="#0F1F0F" rx="4" stroke="#166534" stroke-width="1" stroke-dasharray="3,2"/>
  <text x="475" y="835" text-anchor="middle" font-size="9"   fill="#6B7280">OpenSearch Serverless</text>
  <text x="475" y="848" text-anchor="middle" font-size="8"   fill="#4B5563">Replace Pinecone</text>

  <rect x="572" y="820" width="162" height="36" fill="#0F1F0F" rx="4" stroke="#166534" stroke-width="1" stroke-dasharray="3,2"/>
  <text x="653" y="835" text-anchor="middle" font-size="9"   fill="#6B7280">Amazon Cognito</text>
  <text x="653" y="848" text-anchor="middle" font-size="8"   fill="#4B5563">Replace Supabase Auth</text>

  <rect x="750" y="820" width="162" height="36" fill="#0F1F0F" rx="4" stroke="#166534" stroke-width="1" stroke-dasharray="3,2"/>
  <text x="831" y="835" text-anchor="middle" font-size="9"   fill="#6B7280">Bedrock Guardrails</text>
  <text x="831" y="848" text-anchor="middle" font-size="8"   fill="#4B5563">RBI FREE-AI compliance</text>

  <rect x="928" y="820" width="136" height="36" fill="#0F1F0F" rx="4" stroke="#166534" stroke-width="1" stroke-dasharray="3,2"/>
  <text x="996" y="835" text-anchor="middle" font-size="9"   fill="#6B7280">CloudWatch + X-Ray</text>
  <text x="996" y="848" text-anchor="middle" font-size="8"   fill="#4B5563">Observability</text>

</svg>
